HIERARCHY
ROOT HipCenter
{
    OFFSET 0.0 0.0 -0.0
    CHANNELS 6 Xposition Yposition Zposition Zrotation Xrotation Yrotation
    JOINT Spine
    {
        OFFSET 0.0 27.17871856689453 0.0
        CHANNELS 3 Zrotation Xrotation Yrotation
        JOINT ShoulderCenter
        {
            OFFSET 0.0 20.40505599975586 0.0
            CHANNELS 3 Zrotation Xrotation Yrotation
            JOINT LeftShoulder
            {
                OFFSET 17.68073081970215 0.0 0.0
                CHANNELS 3 Zrotation Xrotation Yrotation
                JOINT LeftElbow
                {
                    OFFSET 24.34488868713379 0.0 0.0
                    CHANNELS 3 Zrotation Xrotation Yrotation
                    JOINT LeftWrist
                    {
                        OFFSET 24.246692657470703 0.0 0.0
                        CHANNELS 3 Zrotation Xrotation Yrotation
                        JOINT LeftHand
                        {
                            OFFSET 6.725795745849609 0.0 0.0
                            CHANNELS 3 Zrotation Xrotation Yrotation
                            End Site
                            {
                                OFFSET 2.6903181076049805 0.0 0.0
                            }
                        }
                    }
                }
            }
            JOINT RightShoulder
            {
                OFFSET -17.68073081970215 0.0 0.0
                CHANNELS 3 Zrotation Xrotation Yrotation
                JOINT RightElbow
                {
                    OFFSET -24.34488868713379 0.0 0.0
                    CHANNELS 3 Zrotation Xrotation Yrotation
                    JOINT RightWrist
                    {
                        OFFSET -24.246692657470703 0.0 0.0
                        CHANNELS 3 Zrotation Xrotation Yrotation
                        JOINT RightHand
                        {
                            OFFSET -6.725795745849609 0.0 0.0
                            CHANNELS 3 Zrotation Xrotation Yrotation
                            End Site
                            {
                                OFFSET -2.6903181076049805 0.0 0.0
                            }
                        }
                    }
                }
            }
            End Site
            {
                OFFSET 0.0 8.162023544311523 0.0
            }
        }
    }
    JOINT LeftHip
    {
        OFFSET 8.574041366577148 0.0 0.0
        CHANNELS 3 Zrotation Xrotation Yrotation
        JOINT LeftKnee
        {
            OFFSET 0.0 -39.027137756347656 0.0
            CHANNELS 3 Zrotation Xrotation Yrotation
            JOINT LeftAnkle
            {
                OFFSET 0.0 -36.775630950927734 0.0
                CHANNELS 3 Zrotation Xrotation Yrotation
                JOINT LeftFoot
                {
                    OFFSET 0.0 -12.728240966796875 0.0
                    CHANNELS 3 Zrotation Xrotation Yrotation
                    End Site
                    {
                        OFFSET 0.0 0.0 5.091296195983887
                    }
                }
            }
        }
    }
    JOINT RightHip
    {
        OFFSET -8.574041366577148 0.0 0.0
        CHANNELS 3 Zrotation Xrotation Yrotation
        JOINT RightKnee
        {
            OFFSET 0.0 -39.027137756347656 0.0
            CHANNELS 3 Zrotation Xrotation Yrotation
            JOINT RightAnkle
            {
                OFFSET 0.0 -36.775630950927734 0.0
                CHANNELS 3 Zrotation Xrotation Yrotation
                JOINT RightFoot
                {
                    OFFSET 0.0 -12.728240966796875 0.0
                    CHANNELS 3 Zrotation Xrotation Yrotation
                    End Site
                    {
                        OFFSET 0.0 0.0 5.091296195983887
                    }
                }
            }
        }
    }
}
MOTION
Frames: 6
Frame Time: 0.03333333333333333
26.61448097229004 -17.61216163635254 -353.67327880859375 10.01206271782821 -2.8646718965555826 -154.73796199194626 -2.5279782994981783 0.34326269311501517 -0.007528866484015419 1.6180900660166353e-06 -6.940278030575346e-07 4.363431096837416 -82.91328050402737 -23.037454885220832 33.304831250411226 -4.947154549199859e-06 2.0395299733009948e-05 12.407827666087115 -5.399362547949955e-07 25.780655637454455 35.257625172936606 6.361109362927033e-15 4.7708320221952736e-15 -6.361109362927033e-15 61.5832135017034 -33.21264819583745 -30.573885179700017 -2.154745591980897e-06 -2.238890805914877e-06 -30.01752962595378 2.9659785955796645e-06 34.8676365847217 -14.1492222454772 3.1805546814635168e-15 -8.827812596100317e-32 -3.1805546814635168e-15 121.16525925239768 19.99476504253699 177.10675417255612 -176.97733579713196 -18.334034764103084 -151.3772005618288 40.91709631933405 -27.811039139842897 -6.835552969422708 -2.186631343506168e-15 -3.975693351829396e-16 -2.882377680076313e-15 -17.517533442532713 23.818565652279464 -23.181230554512155 14.974507580928979 -43.268101288113925 -5.310530226743282 -57.25102783640182 70.27753211178312 61.43625430599891 -1.0933156717530838e-15 1.517280289954742e-32 -1.5902773407317584e-15
26.617618560791016 -17.61216163635254 -353.69561767578125 10.008858217727811 -2.800701340165955 -149.57251361990157 -2.223676784223627 -0.39263540738624475 0.010249738464018573 -3.739883042763864e-07 2.0424095996874864e-07 -0.7260406131912938 -84.54729963915979 -21.273041375642183 32.78520870689113 -2.5427973172457284e-06 -1.9302563137897915e-06 13.268552167658818 7.021588476946922e-07 19.76009017235635 27.936992680071516 3.1805546814635168e-15 0.0 0.0 56.12498701981707 -36.89011879383279 -34.0938901945847 8.936169462332874e-07 7.052752216100691e-06 -29.75849506444192 -6.586444772009015e-06 53.962439586690884 -14.328402038552301 -3.531125038440127e-31 -6.361109362927035e-15 -6.361109362927035e-15 120.37368092713788 14.034544098388864 173.2243379264414 -167.8608145523712 -54.51913100938292 -114.52353135016278 -58.48166450835317 -68.56003320021148 -91.55198585937491 -7.951386703658792e-16 -1.6552148617688095e-32 2.3854160110976376e-15 -12.64113549332078 28.251456436242506 -18.98320830098351 3.512930555437153 -49.04902741167736 -11.1799851457825 -38.859837524245684 76.94096149051121 47.66434864249594 1.7890620083232284e-15 2.4828222926532145e-32 1.5902773407317584e-15
28.425418853759766 -17.860490798950195 -353.6499938964844 12.459726332818091 -2.508760295429558 -142.528449672261 -0.9175640240845621 -1.5535794804156564 0.02645707700621574 1.1523045648740025e-06 1.6500849410773948e-07 -7.721229029677247 -86.26329799315607 -18.91467215800883 31.315762237728215 -6.240583018192631e-07 -1.8056290190494636e-06 14.167648850650677 -4.690271588471512e-06 5.204164765004539 26.001569080567247 -3.1805546814635168e-15 0.0 0.0 55.79730865478608 -36.45205279284592 -34.42897652890902 2.4724763649210995e-06 2.4354089889731024e-06 -30.245792970988827 3.393544234797484e-07 36.29997866794297 -9.98800549825624 -7.95138670365879e-15 0.0 0.0 120.84157254561212 1.1572306386012503 155.5491595269332 170.33090306684326 -34.10145306273644 -150.49619851293178 64.30310042521148 -14.782477139606048 7.813766557680585 -1.5902773407317584e-15 5.517382872562698e-32 -3.975693351829396e-15 2.131900321358701 28.295256895439817 -22.46329910180266 -14.287848237516044 -53.56830490834206 -17.83960848473036 -6.538228188719664 81.36454808958477 19.077260792461583 4.770832022195275e-15 0.0 0.0
27.068748474121094 -18.31060028076172 -353.53228759765625 9.808261284281636 -2.4523865219248435 -143.007929528494 -2.3939654130381136 -0.6257103683393638 0.006853745509534376 -7.180783501067455e-07 4.6444040887533935e-07 -7.055551996861778 -87.45452727631782 -17.985388536665607 31.278046811925126 2.8897952658681913e-06 -4.704594975063876e-07 14.63709431213061 -4.465445456021959e-06 -12.047035926380271 23.914525740292405 1.5902773407317584e-15 -2.2069531490250793e-32 -1.5902773407317584e-15 53.58207956512845 -35.40923621806259 -35.37423374031493 3.163062467124977e-06 2.6915722007301692e-06 -25.43636254746942 1.9243073128985964e-07 9.674340544604156 -17.29859276388588 0.0 0.0 1.5902773407317588e-15 119.87365408650777 3.0274131998029907 159.30500996361306 174.35576549873392 -36.16424331092946 -144.2258408078633 64.95310922185135 -13.867320439620798 6.755645634642261 0.0 0.0 -7.951386703658792e-16 -5.461084666756614 32.76567550976413 -19.523886695050503 -8.946079471170474 -54.948404930708875 -18.77140171985562 -16.510335985853104 81.72341661425192 28.976900468776794 -2.3854160110976376e-15 -3.310429723537619e-32 1.5902773407317584e-15
26.332319259643555 -18.012229919433594 -354.0783996582031 8.556234480981598 -1.36111147505838 -142.48124026615372 -2.5343265096915863 0.408683577387223 0.0006058575943962394 -2.1720230113504608e-07 5.3801717170520617e-08 -7.565544457524905 -88.08819436747241 -17.48120732683428 31.01582480902031 1.5705919647790098e-06 6.716631561111275e-07 15.351178650444895 -1.5935751393348984e-06 -32.672573969513145 28.944385304963788 0.0 -6.5598940305185035e-15 0.0 53.757904753475145 -33.13688270090175 -33.28218985979538 -5.441040380908551e-07 -2.436948621522767e-07 -26.35858121017765 3.92715823242539e-06 -10.34613722393234 -16.581865627737884 7.95138670365879e-16 3.180554681463516e-15 1.590277340731758e-15 117.9957742504683 4.1206428701933 159.95732276248805 174.4275292812751 -37.29940769174267 -140.28003254730103 66.16533657425802 -14.641451333039264 7.0815646220932305 0.0 0.0 -4.770832022195275e-15 -5.623242632094047 36.08623487805526 -18.370182929594876 -11.389845085741673 -55.91686751832035 -21.84239766433825 -14.205666149753862 82.0730752152873 28.10650806310949 -1.5902773407317584e-15 0.0 0.0
26.572851181030273 -17.989839553833008 -354.069580078125 9.006267008989683 -1.276464236631144 -142.51442707345274 -2.2842389106390106 -0.4259295192138651 0.00024961165273829793 -2.7328619445767365e-07 -3.4513509918653626e-08 -7.513257051575536 -87.45636300154197 -17.76137110609312 31.5982961586071 -1.1611239127758846e-06 4.373875952620937e-06 15.548559632397932 2.3053963603722633e-06 -42.95477875918321 31.427205652505585 7.951386703658794e-16 -6.361109362927035e-15 7.951386703658794e-16 46.42546649345145 -40.61098916691674 -34.485940347334 2.112808768909335e-06 -1.6472042973878946e-06 -33.06839327819609 -9.75812020886955e-06 49.95278672473364 -8.919012600144884 4.770832022195275e-15 0.0 0.0 116.93903689717887 5.0062761433500995 160.45356181842925 174.24708282892752 -37.56932297188299 -138.8274403220516 66.99844049037907 -15.27223160654804 7.462833548073822 0.0 0.0 -4.770832022195275e-15 -4.288961078277971 35.73582609203543 -19.329972900714537 -12.009033523164458 -56.428124721385615 -21.672798479099082 -16.60521613297672 82.38086945819606 30.155998634106446 -7.951386703658792e-16 1.1034765745125397e-32 -1.5902773407317584e-15
